<svg width="32" height="32" viewBox="0 0 32 32" fill="none" xmlns="http://www.w3.org/2000/svg">
<path d="M16.3333 21.3333C18.5467 21.3333 20.3333 19.5467 20.3333 17.3333C20.3333 15.84 19.52 14.5333 18.3333 13.8533L4.55556 7.11111L12.5067 19.3333C13.6667 20.6667 14.7733 21.3333 16.3333 21.3333ZM16.3333 4C13.92 4 11.6667 4.66667 9.70667 5.76L12.5067 7.37333C13.6667 6.92 15 6.66667 16.3333 6.66667C22.2267 6.66667 27 11.44 27 17.3333C27 20.28 25.8133 22.9467 23.88 24.8667H23.8667C23.3467 25.3867 23.3467 26.2267 23.8667 26.7467C24.3867 27.2667 25.24 27.2667 25.76 26.76C28.1733 24.3467 29.6667 21.0133 29.6667 17.3333C29.6667 10 23.6667 4 16.3333 4ZM3 17.3333C3 21.0133 4.49333 24.3467 6.90667 26.76C7.42667 27.2667 8.26667 27.2667 8.78667 26.7467C9.30667 26.2267 9.30667 25.3867 8.78667 24.8667C6.85333 22.9333 5.66667 20.28 5.66667 17.3333C5.66667 16 5.92 14.6667 6.38667 13.4667L4.77333 10.6667C3.66667 12.6667 3 14.9067 3 17.3333Z" fill="#F7CA46"/>
<path d="M16.3333 21.3333C18.5467 21.3333 20.3333 19.5467 20.3333 17.3333C20.3333 15.84 19.52 14.5333 18.3333 13.8533L4.55556 7.11111L12.5067 19.3333C13.6667 20.6667 14.7733 21.3333 16.3333 21.3333ZM16.3333 4C13.92 4 11.6667 4.66667 9.70667 5.76L12.5067 7.37333C13.6667 6.92 15 6.66667 16.3333 6.66667C22.2267 6.66667 27 11.44 27 17.3333C27 20.28 25.8133 22.9467 23.88 24.8667H23.8667C23.3467 25.3867 23.3467 26.2267 23.8667 26.7467C24.3867 27.2667 25.24 27.2667 25.76 26.76C28.1733 24.3467 29.6667 21.0133 29.6667 17.3333C29.6667 10 23.6667 4 16.3333 4ZM3 17.3333C3 21.0133 4.49333 24.3467 6.90667 26.76C7.42667 27.2667 8.26667 27.2667 8.78667 26.7467C9.30667 26.2267 9.30667 25.3867 8.78667 24.8667C6.85333 22.9333 5.66667 20.28 5.66667 17.3333C5.66667 16 5.92 14.6667 6.38667 13.4667L4.77333 10.6667C3.66667 12.6667 3 14.9067 3 17.3333Z" fill="#F7CA46"/>
</svg>
