<svg width="24" height="24" viewBox="0 0 24 24" fill="none" xmlns="http://www.w3.org/2000/svg">
<path d="M3 1H7V16H3V1Z" fill="#707070"/>
<path d="M10 4H14V16H10V4Z" fill="#707070"/>
<path d="M17 7H21V16H17V7Z" fill="#707070"/>
<path fill-rule="evenodd" clip-rule="evenodd" d="M11 17L1 17L1 19L11 19L11 17Z" fill="#2ECC71"/>
<path fill-rule="evenodd" clip-rule="evenodd" d="M23 17L13 17L13 19L23 19L23 17Z" fill="#2ECC71"/>
<path fill-rule="evenodd" clip-rule="evenodd" d="M7 22L7 19L5 19L5 22L7 22Z" fill="#2ECC71"/>
<path fill-rule="evenodd" clip-rule="evenodd" d="M19 22L19 19L17 19L17 22L19 22Z" fill="#2ECC71"/>
</svg>
